#!OML:ASF E:\Steps\Project 1\Capture day 1\Session 2\Subject.ASF
:FULLY-SPECIFIED
:DEGREES
235
root 9.06259 14.9605 18.6266 194.873 67.5877 -188.73
lowerback -15.1218 0.631015 -5.70972
upperback -1.32683 2.23094 -3.26037
thorax 7.00053 1.04543 0.227658
lowerneck 3.62781 -12.2209 -11.4229
upperneck -23.4286 -12.5877 25.15
head -4.77782 -6.84696 10.5493
rclavicle 4.9895e-014 -4.77083e-015
rhumerus -15.2099 -3.41387 -86.8946
rradius 24.6713
rwrist 10.4872
rhand -5.80624 -54.0801
rfingers 7.12502
rthumb 20.0186 -83.0689
lclavicle 4.9895e-014 -4.77083e-015
lhumerus -21.3485 -1.05748 84.6782
lradius 18.9693
lwrist -1.26259
lhand -30.9546 -20.5843
lfingers 7.12502
lthumb -4.23934 9.35326
rfemur -51.3325 6.4845 18.3853
rtibia 55.6264
rfoot -39.7541 -22.3895
rtoes -33.3915
lfemur -55.775 -15.2456 -11.4214
ltibia 55.9637
lfoot -26.7248 -0.421778
ltoes -39.8403
236
root 9.03468 15.0402 18.6251 195.071 67.9039 -188.699
lowerback -15.2097 0.532329 -5.77978
upperback -1.50379 2.10479 -3.15082
thorax 6.8573 0.988346 0.358865
lowerneck 2.95055 -12.0427 -11.288
upperneck -22.6266 -12.4887 24.6426
head -4.50017 -6.73426 10.2401
rclavicle 2.26615e-014 4.13472e-014
rhumerus -14.6239 -3.35739 -86.6518
rradius 24.9628
rwrist 10.1518
rhand -5.42917 -53.9815
rfingers 7.12502
rthumb 20.381 -82.932
lclavicle 2.26615e-014 4.13472e-014
lhumerus -21.0514 -1.38664 85.04
lradius 19.1302
lwrist -1.08569
lhand -30.4016 -20.8031
lfingers 7.12502
lthumb -3.70527 9.14448
rfemur -51.0052 6.64294 18.2163
rtibia 54.2606
rfoot -38.9973 -22.0688
rtoes -34.6554
lfemur -55.4534 -15.5616 -11.1435
ltibia 54.7946
lfoot -26.5953 -0.864958
ltoes -35.6762
237
root 9.01191 15.1187 18.6227 195.346 68.2042 -188.517
lowerback -15.3532 0.441538 -5.73013
upperback -1.64551 1.98054 -3.09474
thorax 6.78946 0.934269 0.367466
lowerneck 2.69652 -11.8493 -11.1347
upperneck -22.2617 -12.2704 24.4268
head -4.42196 -6.60807 10.1075
rclavicle -2.84262e-014 -3.18055e-015
rhumerus -13.9519 -3.55349 -86.5311
rradius 25.175
rwrist 10.0981
rhand -4.96195 -53.6789
rfingers 7.12502
rthumb 20.83 -82.5807
lclavicle -2.84262e-014 -3.18055e-015
lhumerus -20.7969 -1.94628 85.3169
lradius 19.4284
lwrist -0.153707
lhand -29.7654 -21.3139
lfingers 7.12502
lthumb -3.09088 8.64344
rfemur -50.5693 6.88747 18.1349
rtibia 52.8663
rfoot -38.5446 -21.8949
rtoes -35.3078
lfemur -55.0007 -15.6067 -11.0252
ltibia 53.6413
lfoot -26.4883 -0.255567
ltoes -36.7351
238
root 8.99321 15.1927 18.6212 195.73 68.4742 -188.158
lowerback -15.5056 0.423857 -5.58046
upperback -1.74341 1.94571 -3.12039
thorax 6.77596 0.925644 0.251437
lowerneck 2.50379 -11.7333 -10.9064
upperneck -21.9636 -12.1277 24.3202
head -4.35508 -6.53389 10.0051
rclavicle 6.0033e-014 4.13472e-014
rhumerus -13.1124 -3.59729 -86.5511
rradius 25.2116
rwrist 9.37645
rhand -5.12661 -53.7423
rfingers 7.12502
rthumb 20.6718 -82.6615
lclavicle 6.0033e-014 4.13472e-014
lhumerus -20.6505 -3.46143 85.7785
lradius 19.7133
lwrist -0.315004
lhand -31.3263 -20.7972
lfingers 7.12502
lthumb -4.59821 9.13289
rfemur -50.0114 7.19173 18.1356
rtibia 51.4841
rfoot -38.0307 -21.9148
rtoes -36.2116
lfemur -54.4219 -15.5254 -10.9656
ltibia 52.4471
lfoot -26.5431 1.78301
ltoes -43.6639
239
root 8.97443 15.2648 18.6192 196.032 68.7409 -187.937
lowerback -15.6968 0.402373 -5.48891
upperback -1.84167 1.92014 -3.15023
thorax 6.78118 0.919944 0.165976
lowerneck 2.36052 -11.7322 -10.6887
upperneck -21.6211 -12.18 24.1704
head -4.25165 -6.55802 9.88012
rclavicle -5.68524e-014 1.90833e-014
rhumerus -12.2083 -2.65092 -86.673
rradius 25.3324
rwrist 6.99895
rhand -6.37536 -55.0116
rfingers 7.12502
rthumb 19.4715 -84.0567
lclavicle -5.68524e-014 1.90833e-014
lhumerus -20.2598 -4.25346 85.9207
lradius 19.9081
lwrist -0.29733
lhand -31.1486 -20.6182
lfingers 7.12502
lthumb -4.42661 9.31552
rfemur -49.5508 7.39596 18.0891
rtibia 50.1857
rfoot -37.4379 -21.9448
rtoes -37.0865
lfemur -53.8871 -15.5733 -10.8765
ltibia 51.1855
lfoot -26.4054 3.37654
ltoes -47.7739
240
root 8.94718 15.3383 18.6239 196.207 69.0877 -187.873
lowerback -15.7668 0.287311 -5.50083
upperback -2.01183 1.77001 -3.11005
thorax 6.64119 0.854707 0.184929
lowerneck 2.20241 -11.6163 -10.5763
upperneck -21.1863 -12.1047 23.9813
head -4.13666 -6.50917 9.75966
rclavicle -1.53064e-014 4.29375e-014
rhumerus -11.369 -2.4602 -86.6381
rradius 25.3627
rwrist 6.76272
rhand -5.61585 -54.7434
rfingers 7.12502
rthumb 20.2016 -83.7129
lclavicle -1.53064e-014 4.29375e-014
lhumerus -19.9521 -4.84458 85.9586
lradius 20.2896
lwrist 0.543575
lhand -30.2915 -20.8062
lfingers 7.12502
lthumb -3.59896 9.14313
rfemur -49.2429 7.669 17.9932
rtibia 48.9901
rfoot -36.9556 -22.1734
rtoes -38.8981
lfemur -53.4228 -15.5878 -10.7645
ltibia 50.0548
lfoot -26.2672 4.26693
ltoes -49.2035
241
root 8.91836 15.4078 18.6262 196.427 69.426 -187.758
lowerback -15.945 0.160267 -5.35889
upperback -2.13239 1.59136 -3.10679
thorax 6.62067 0.776092 0.0734247
lowerneck 1.90173 -11.4004 -10.4478
upperneck -20.778 -11.8638 23.7777
head -4.03592 -6.36696 9.63302
rclavicle -3.3197e-014 -3.18055e-015
rhumerus -10.5942 -2.22915 -86.7534
rradius 25.6895
rwrist 6.45625
rhand -5.17118 -54.7523
rfingers 7.12502
rthumb 20.6289 -83.6761
lclavicle -3.3197e-014 -3.18055e-015
lhumerus -19.5249 -5.1331 85.8802
lradius 20.5888
lwrist 1.03345
lhand -29.5679 -20.7076
lfingers 7.12502
lthumb -2.90021 9.25238
rfemur -48.9427 7.92407 17.8682
rtibia 47.8094
rfoot -36.5192 -22.3987
rtoes -41.2433
lfemur -52.9795 -15.7715 -10.5401
ltibia 48.8829
lfoot -26.1189 5.42361
ltoes -50.5881
242
root 8.89944 15.4692 18.6216 196.948 69.6101 -187.453
lowerback -16.4381 0.0878006 -5.08579
upperback -2.22808 1.49441 -3.15243
thorax 6.80078 0.737853 -0.144199
lowerneck 2.02928 -11.2532 -10.357
upperneck -20.754 -11.6653 23.7436
head -4.09704 -6.28118 9.62609
rclavicle -6.55989e-015 -2.70347e-014
rhumerus -9.86932 -2.15282 -86.8405
rradius 26.0408
rwrist 5.89871
rhand -5.00783 -54.5848
rfingers 7.12502
rthumb 20.7859 -83.4915
lclavicle -6.55989e-015 -2.70347e-014
lhumerus -19.0859 -5.92984 85.9204
lradius 20.771
lwrist 0.937562
lhand -29.483 -20.4229
lfingers 7.12502
lthumb -2.81815 9.5382
rfemur -48.7028 8.0852 17.8034
rtibia 46.6674
rfoot -36.3436 -22.2893
rtoes -41.7903
lfemur -52.6279 -16.0642 -10.1935
ltibia 47.6875
lfoot -26.1352 5.93459
ltoes -50.9381
243
root 8.88981 15.5263 18.6125 197.628 69.7157 -186.987
lowerback -17.0471 0.0259857 -4.81832
upperback -2.30295 1.41225 -3.12566
thorax 7.06242 0.703537 -0.278921
lowerneck 2.27554 -11.1446 -10.3888
upperneck -20.6845 -11.5524 23.749
head -4.13755 -6.24122 9.65306
rclavicle 1.2921e-014 1.19271e-014
rhumerus -9.17777 -1.8883 -86.8167
rradius 26.399
rwrist 5.0883
rhand -5.12196 -54.577
rfingers 7.12502
rthumb 20.6762 -83.4957
lclavicle 1.2921e-014 1.19271e-014
lhumerus -18.7734 -7.42296 86.1438
lradius 21.1381
lwrist 1.42888
lhand -29.9036 -20.4286
lfingers 7.12502
lthumb -3.22434 9.52674
rfemur -48.3873 8.191 17.837
rtibia 45.5442
rfoot -36.2972 -21.9536
rtoes -41.2064
lfemur -52.2922 -16.46 -9.7592
ltibia 46.4929
lfoot -26.1039 6.13501
ltoes -50.8089
244
root 8.88394 15.5805 18.6014 198.072 69.9246 -186.697
lowerback -17.6755 -0.0395004 -4.61271
upperback -2.3247 1.33545 -3.09701
thorax 7.38913 0.668123 -0.377402
lowerneck 1.95805 -11.0556 -10.1548
upperneck -20.1815 -11.5271 23.3923
head -3.98882 -6.20354 9.44007
rclavicle -5.70512e-014 -1.03368e-014
rhumerus -8.40306 -1.48806 -86.8209
rradius 26.6756
rwrist 4.28615
rhand -5.44426 -54.993
rfingers 7.12502
rthumb 20.3665 -83.945
lclavicle -5.70512e-014 -1.03368e-014
lhumerus -18.3386 -8.72029 86.2155
lradius 21.5754
lwrist 2.723
lhand -29.5428 -21.1015
lfingers 7.12502
lthumb -2.87593 8.85884
rfemur -47.9893 8.33439 17.8219
rtibia 44.3959
rfoot -36.1611 -21.6767
rtoes -41.1927
lfemur -51.8268 -16.8196 -9.46564
ltibia 45.2363
lfoot -25.8677 6.91958
ltoes -51.4094
245
root 8.8772 15.6324 18.5881 198.421 70.1528 -186.461
lowerback -18.1868 -0.0796173 -4.42346
upperback -2.38961 1.28513 -3.08548
thorax 7.60339 0.649112 -0.480643
lowerneck 1.29385 -10.9 -9.85726
upperneck -19.5016 -11.4057 22.9729
head -3.75358 -6.09307 9.167
rclavicle 2.00773e-014 -2.78299e-014
rhumerus -7.74709 -0.969662 -86.8126
rradius 26.8554
rwrist 3.46411
rhand -5.78471 -55.1579
rfingers 7.12502
rthumb 20.0393 -84.1446
lclavicle 2.00773e-014 -2.78299e-014
lhumerus -18.0561 -10.4222 86.4412
lradius 21.9679
lwrist 3.29307
lhand -30.0515 -20.7999
lfingers 7.12502
lthumb -3.36718 9.15324
rfemur -47.5631 8.43239 17.7997
rtibia 43.1894
rfoot -35.7969 -21.7242
rtoes -42.182
lfemur -51.2952 -17.0582 -9.28069
ltibia 44.0054
lfoot -25.888 7.01635
ltoes -51.2142
246
root 8.8655 15.68 18.5786 198.461 70.4924 -186.505
lowerback -18.4777 -0.126998 -4.47353
upperback -2.54845 1.25019 -3.02764
thorax 7.58788 0.636163 -0.395989
lowerneck 1.18103 -10.7442 -9.80695
upperneck -19.2591 -11.2611 22.6739
head -3.7174 -6.00156 9.04517
rclavicle 3.55825e-014 -2.3059e-014
rhumerus -7.38219 -0.118398 -86.6751
rradius 27.1376
rwrist 2.51547
rhand -5.95504 -54.9858
rfingers 7.12502
rthumb 19.8756 -83.9895
lclavicle 3.55825e-014 -2.3059e-014
lhumerus -17.8007 -11.2381 86.5919
lradius 22.2292
lwrist 3.38867
lhand -29.7011 -20.8779
lfingers 7.12502
lthumb -3.02884 9.08033
rfemur -47.1776 8.59082 17.6541
rtibia 42.0756
rfoot -35.4034 -21.6275
rtoes -42.7353
lfemur -50.7504 -17.2564 -9.18709
ltibia 42.9019
lfoot -26.2157 6.03024
ltoes -47.7644
247
root 8.85143 15.7236 18.5701 197.084 71.1409 -187.799
lowerback -18.5017 -0.171947 -4.96986
upperback -2.65427 1.30299 -3.09661
thorax 7.47648 0.656747 -0.175916
lowerneck 1.29104 -10.7673 -9.65922
upperneck -18.8877 -11.4224 22.3138
head -3.64441 -6.08198 8.88156
rclavicle 2.74323e-014 2.78299e-014
rhumerus -7.09177 0.587655 -86.5722
rradius 27.5009
rwrist 1.88019
rhand -5.78693 -54.9432
rfingers 7.12502
rthumb 20.0372 -83.93
lclavicle 2.74323e-014 2.78299e-014
lhumerus -17.6206 -12.1562 86.6411
lradius 22.738
lwrist 3.66316
lhand -29.3316 -20.5942
lfingers 7.12502
lthumb -2.67198 9.36878
rfemur -46.6758 8.9189 16.9925
rtibia 41.1309
rfoot -35.3294 -21.2274
rtoes -42.0829
lfemur -49.8496 -17.6476 -9.58425
ltibia 41.7553
lfoot -26.3853 5.84804
ltoes -45.2699
248
root 8.83677 15.7735 18.5686 196.78 71.3511 -188.146
lowerback -18.5963 -0.304167 -5.08475
upperback -2.81795 1.16351 -3.10915
thorax 7.35262 0.596154 -0.157045
lowerneck 1.48961 -10.6505 -10.1653
upperneck -18.607 -11.2756 22.9697
head -3.52668 -6.02348 9.18
rclavicle 1.13307e-014 3.57812e-014
rhumerus -6.78263 0.949876 -86.636
rradius 27.7654
rwrist 1.55935
rhand -5.48533 -54.9186
rfingers 7.12502
rthumb 20.327 -83.8748
lclavicle 1.13307e-014 3.57812e-014
lhumerus -17.4377 -13.1979 86.5495
lradius 23.1832
lwrist 3.83376
lhand -29.3408 -20.1661
lfingers 7.12502
lthumb -2.68086 9.79682
rfemur -46.3118 9.07699 16.7293
rtibia 40.1877
rfoot -35.3508 -21.0551
rtoes -41.5711
lfemur -49.4161 -18.0001 -9.53031
ltibia 40.8112
lfoot -26.2422 6.5465
ltoes -46.85
249
root 8.82642 15.8176 18.5621 196.766 71.5876 -188.138
lowerback -18.6748 -0.399485 -5.00378
upperback -3.02421 1.02569 -3.07811
thorax 7.17634 0.542033 -0.201308
lowerneck 1.60003 -10.5064 -10.3445
upperneck -18.1796 -11.2016 22.8426
head -3.43273 -5.97717 9.15304
rclavicle -6.54002e-014 6.36111e-015
rhumerus -6.64554 1.39308 -86.6835
rradius 27.9922
rwrist 1.36478
rhand -5.12745 -54.8057
rfingers 7.12502
rthumb 20.671 -83.7249
lclavicle -6.54002e-014 6.36111e-015
lhumerus -17.3582 -14.0743 86.5448
lradius 23.483
lwrist 3.85574
lhand -29.1108 -19.9418
lfingers 7.12502
lthumb -2.45868 10.0238
rfemur -45.8538 9.25074 16.6245
rtibia 39.2369
rfoot -35.3187 -21.0241
rtoes -41.6384
lfemur -48.8898 -18.2085 -9.44997
ltibia 39.8057
lfoot -26.0832 6.81868
ltoes -47.4953
